<?xml version="1.0" encoding="UTF-8" standalone="no"?>
<!-- Created with Inkscape (http://www.inkscape.org/) -->

<svg
   width="250mm"
   height="250.00002mm"
   viewBox="0 0 250 250.00002"
   version="1.1"
   id="svg5"
   xml:space="preserve"
   sodipodi:docname="logo_dark.svg"
   inkscape:version="1.2.1 (9c6d41e, 2022-07-14)"
   xmlns:inkscape="http://www.inkscape.org/namespaces/inkscape"
   xmlns:sodipodi="http://sodipodi.sourceforge.net/DTD/sodipodi-0.dtd"
   xmlns:xlink="http://www.w3.org/1999/xlink"
   xmlns="http://www.w3.org/2000/svg"
   xmlns:svg="http://www.w3.org/2000/svg"><sodipodi:namedview
     id="namedview7"
     pagecolor="#ffffff"
     bordercolor="#000000"
     borderopacity="0.25"
     inkscape:showpageshadow="2"
     inkscape:pageopacity="0.0"
     inkscape:pagecheckerboard="0"
     inkscape:deskcolor="#d1d1d1"
     inkscape:document-units="mm"
     showgrid="false"
     showguides="false"
     inkscape:zoom="0.37984703"
     inkscape:cx="77.662842"
     inkscape:cy="471.24233"
     inkscape:window-width="1512"
     inkscape:window-height="826"
     inkscape:window-x="0"
     inkscape:window-y="38"
     inkscape:window-maximized="1"
     inkscape:current-layer="layer1" /><defs
     id="defs2"><linearGradient
       id="linearGradient4671"><stop
         style="stop-color:#ffd43b;stop-opacity:1;"
         offset="0"
         id="stop4673" /><stop
         style="stop-color:#ffe873;stop-opacity:1"
         offset="1"
         id="stop4675" /></linearGradient><linearGradient
       id="linearGradient4689"><stop
         style="stop-color:#5a9fd4;stop-opacity:1;"
         offset="0"
         id="stop4691" /><stop
         style="stop-color:#306998;stop-opacity:1;"
         offset="1"
         id="stop4693" /></linearGradient><linearGradient
       inkscape:collect="always"
       xlink:href="#linearGradient4671"
       id="linearGradient1475"
       gradientUnits="userSpaceOnUse"
       gradientTransform="matrix(0.53752302,0,0,0.54271249,24.002734,65.55198)"
       x1="150.96111"
       y1="192.35176"
       x2="112.03144"
       y2="137.27299" /><linearGradient
       inkscape:collect="always"
       xlink:href="#linearGradient4689"
       id="linearGradient1478"
       gradientUnits="userSpaceOnUse"
       gradientTransform="matrix(0.53752302,0,0,0.54271249,24.002734,65.55198)"
       x1="26.648937"
       y1="20.603781"
       x2="135.66525"
       y2="114.39767" /></defs><g
     inkscape:label="Layer 1"
     inkscape:groupmode="layer"
     id="layer1"
     transform="translate(31.112319,1.8571195)"><g
       id="g9382"
       inkscape:export-filename="logo.png"
       inkscape:export-xdpi="96"
       inkscape:export-ydpi="96"
       transform="matrix(0.71048549,0,0,0.71048549,27.181845,35.651658)"><path
         style="fill:#ffffff;fill-opacity:1;stroke-width:0.352778"
         d="m -9.9157358,242.85173 c -20.9053702,-6.1926 -20.4441502,-38.4081 0.6195,-43.27171 l 1.8542302,-0.42814 -0.0903,-27.51735 -0.0903,-27.51733 -2.8371704,-0.95192 c -20.35621,-6.82983 -19.79336,-35.43623 0.8099502,-41.16446 l 2.2036102,-0.61265 V 73.971212 46.554263 L -9.1219058,46.136711 C -20.915536,43.197967 -28.682206,28.982277 -24.615376,17.77829 c 7.42777,-20.4632759 36.45169,-20.1527869 43.13945,0.461493 l 0.746683,2.301552 26.121238,0.09045 26.12124,0.09045 0.24569,-1.501558 c 0.90832,-5.551381 7.20915,-12.4267583 13.9282,-15.1982503 11.6796,-4.81763462 25.738525,2.567323 28.928985,15.1959983 l 0.37877,1.499306 h 26.77249 26.77247 l 0.58531,-2.013405 c 6.27887,-21.5985379 38.09694,-21.5288629 43.72944,0.09576 2.93158,11.25511 -5.96193,25.736684 -16.92441,27.55851 l -1.05833,0.17588 -0.047,27.471627 -0.047,27.471627 1.98729,0.57111 c 11.22222,3.22507 19.07853,15.92615 15.78259,25.51527 -2.70142,7.85945 -8.12554,13.45981 -15.39741,15.89771 l -2.30767,0.77365 0.12021,27.21926 c 0.1268,28.71048 0.0672,27.75134 1.72523,27.76316 7.48994,0.0534 16.80355,12.28387 16.7943,22.05401 -0.0248,26.18033 -37.62329,30.98552 -44.54829,5.69339 l -0.59294,-2.16561 h -26.39119 -26.39119 l -0.92553,2.8785 c -6.22285,19.35375 -31.741835,21.86525 -41.065455,4.04154 -1.10217,-2.10699 -1.48168,-3.1907 -2.12463,-6.06697 l -0.2036,-0.91082 -25.748023,-0.0111 -25.748031,-0.0111 -0.894588,2.68582 c -3.973399,11.92929 -17.0080487,18.92873 -28.7645788,15.44621 z m 9.56504015,-5.53381 C 8.6954744,235.61299 14.696664,226.935 12.905054,218.14952 c -3.9511696,-19.37515 -32.27765,-16.47342 -32.33967,3.31284 -0.0315,10.06251 9.18626,17.72097 19.08392035,15.85556 z M 97.328715,236.90044 c 11.543165,-2.788 15.445745,-18.04293 6.822185,-26.66746 -8.754495,-8.75545 -24.452945,-3.40346 -26.201145,8.93263 -1.64728,11.62393 8.02631,20.47682 19.37896,17.73483 z m 98.480165,0.0819 c 14.11481,-4.35962 15.45328,-23.8201 2.08279,-30.28239 l -2.62455,-1.2685 -3.08309,-0.1474 c -11.12251,-0.53178 -19.23932,8.89789 -16.92957,19.66787 1.93234,9.01019 11.74263,14.75211 20.55442,12.03042 z M 71.780285,216.9043 c 1.00256,-6.98919 11.24427,-16.97546 17.40967,-16.97546 h 0.66458 l 0.25252,-3.36824 c 0.1389,-1.85252 0.14418,-4.18498 0.0117,-5.18324 -0.99332,-7.48801 1.93284,-12.40816 5.34826,-8.99274 l 0.94134,0.94135 0.15178,8.30143 0.15178,8.30144 h 1.03705 c 6.053905,0 15.596985,9.25275 16.918885,16.40416 l 0.39125,2.11667 h 26.72874 26.72872 l 0.42475,-1.94028 c 1.71316,-7.82577 9.54728,-15.57434 17.22068,-17.03261 l 2.16375,-0.41121 0.1781,-1.42045 c 0.0979,-0.78125 0.0627,-13.14643 -0.0784,-27.47817 l -0.25649,-26.0577 -2.58893,-0.65722 c -6.74735,-1.71285 -11.97316,-6.68544 -14.73005,-14.0163 l -1.15115,-3.06105 -9.63534,-0.17639 -9.63534,-0.17639 -0.22604,-1.05834 c -1.10267,-5.16251 -1.19604,-5.11527 10.11182,-5.11527 h 9.5747 l 0.44558,-2.02848 c 1.44615,-6.58344 9.86023,-14.8131 16.24725,-15.89112 l 1.5875,-0.26794 0.0903,-27.347711 0.0903,-27.347705 -2.03062,-0.421722 C 178.1575,44.848617 171.26786,38.070204 169.08197,29.584818 l -0.6537,-2.537611 -26.6038,0.09845 -26.60381,0.09845 -0.28782,0.529167 c -0.1583,0.291041 -0.53163,1.422922 -0.82962,2.515291 -1.73214,6.349556 -8.90766,13.561491 -15.246475,15.323839 l -2.17364,0.604326 -0.23608,1.258379 c -0.12984,0.692111 -0.20627,3.170146 -0.16985,5.506749 0.0364,2.336599 0.0498,5.315847 0.0297,6.620553 l -0.0365,2.372191 -1.04081,0.538226 c -3.81335,1.971957 -5.46416,-0.383198 -5.28138,-7.534777 0.0626,-2.447834 0.0819,-5.412786 0.043,-6.588778 l -0.0708,-2.138169 -1.81365,-0.464827 c -7.60703,-1.949623 -14.08966,-8.459879 -16.02083,-16.089101 l -0.62923,-2.485824 -25.948252,0.01637 -25.948246,0.01637 -0.645887,2.469445 C 16.919104,37.341845 9.2743544,44.912626 2.0604543,46.404301 l -2.72273995,0.563002 -0.21393,1.780063 c -0.11767,0.979033 -0.21530995,13.232083 -0.21699995,27.228997 l -0.003,25.448937 1.32291995,0.23697 C 7.2075744,102.91269 14.506634,109.96801 16.392074,117.2878 l 0.61409,2.38408 h 8.952109 c 10.310182,0 9.62078,-0.25619 9.629,3.57823 0.0068,3.17248 0.753713,2.94816 -9.816191,2.94816 h -8.705558 l -0.83512,2.38125 c -2.60262,7.42099 -8.9808396,13.66554 -15.2981497,14.97753 l -2.0284699,0.42127 v 27.21883 27.21884 l 3.3820299,0.81465 c 8.5630097,2.06264 17.0459227,11.01175 17.0752637,18.01369 0.0021,0.50124 0.07,0.97749 0.150894,1.05833 0.08089,0.0808 11.821774,0.16595 26.09085,0.18912 l 25.943763,0.0421 0.23377,-1.62963 z M 0.7669243,137.11443 c 12.4283997,-4.11039 13.6305697,-21.83627 1.8748601,-27.64487 -11.3138302,-5.59028 -23.6368204,3.38953 -21.6898204,15.80544 1.40647,8.96893 11.0578404,14.73563 19.8149603,11.83943 z M 196.83644,136.75096 c 14.02631,-5.40912 12.02877,-25.64281 -2.83757,-28.74253 l -2.47849,-0.51678 -2.5493,0.53155 c -18.41899,3.84047 -16.58112,29.67636 2.11971,29.79778 2.44815,0.0159 3.37956,-0.15756 5.74565,-1.07002 z M 3.6324144,39.300806 C 16.218704,33.271519 16.158294,16.255323 3.5285444,10.040874 L 1.2092443,8.8996677 h -4.4348399 -4.43483 l -2.7908804,1.3796143 c -5.17409,2.5577 -7.98883,6.326252 -8.69995,11.648064 -1.70445,12.755422 11.4632704,22.796335 22.7836704,17.37346 z M 195.07232,40.263243 c 16.64009,-4.887644 15.46647,-29.17363 -1.5228,-31.5117213 -9.6931,-1.333981 -17.9543,5.1148083 -18.51768,14.4551103 -0.67426,11.178628 9.77481,20.071916 20.04048,17.056611 z M 99.445385,38.650216 c 12.121705,-5.694045 12.226675,-22.683971 0.17638,-28.5487 l -2.46944,-1.2018483 -3.70417,0.01764 -3.70416,0.01764 -2.10193,0.965566 c -16.02031,7.3593093 -11.23615,30.7430223 6.15887,30.1029003 l 2.99861,-0.110349 z"
         id="path430"
         sodipodi:nodetypes="sscccsscccssscccssscccssscccssscsssscccssscccssssssssssssscssscscscscccsscccssccccsscccsscsscccsscccscscssccscccsscccssccccsscssscsscccsssscccsssssscssssscccscssssssscccsscs" /><g
         id="g759"
         transform="translate(2.4517012,-7.286383)"><path
           style="fill:url(#linearGradient1478);fill-opacity:1;stroke-width:0.955527"
           d="m 90.803525,76.734788 c -4.379803,0.02035 -8.562418,0.393885 -12.242688,1.045108 -10.841613,1.915357 -12.81003,5.924364 -12.810031,13.317655 v 9.764289 h 25.620063 v 3.25476 H 65.750806 56.135817 c -7.445904,0 -13.96575,4.47542 -16.005074,12.9892 -2.352336,9.75876 -2.456674,15.84839 0,26.0381 1.821165,7.58483 6.170355,12.98919 13.616257,12.9892 h 8.808763 v -11.70521 c 0,-8.45632 7.316606,-15.91549 16.005074,-15.91549 h 25.590203 c 7.12341,0 12.81004,-5.86518 12.81003,-13.01905 V 91.097551 c 0,-6.943182 -5.85736,-12.158866 -12.81003,-13.317655 -4.401144,-0.732627 -8.967711,-1.065459 -13.347515,-1.045108 z m -13.855139,7.853237 c 2.646376,0 4.807494,2.196417 4.807494,4.897074 -2e-6,2.691085 -2.161118,4.867215 -4.807494,4.867215 -2.655864,-1e-6 -4.807495,-2.176131 -4.807495,-4.867215 0,-2.700656 2.151631,-4.897074 4.807495,-4.897074 z"
           id="path1948" /><path
           style="fill:url(#linearGradient1475);fill-opacity:1;stroke-width:0.955527"
           d="m 120.15612,104.1166 v 11.37675 c 0,8.82023 -7.47786,16.24395 -16.00508,16.24395 H 78.560837 c -7.009585,0 -12.81003,5.99926 -12.810031,13.01906 v 24.39579 c 0,6.94318 6.03758,11.02709 12.810031,13.01905 8.109873,2.38463 15.886816,2.81559 25.590203,0 6.44995,-1.86747 12.81004,-5.62577 12.81003,-13.01905 v -9.76429 H 91.370869 v -3.25476 h 25.590201 12.81004 c 7.4459,0 10.22055,-5.19368 12.81002,-12.9892 2.67484,-8.02536 2.56102,-15.74304 0,-26.0381 -1.84013,-7.41245 -5.35465,-12.9892 -12.81002,-12.9892 z m -14.39263,61.78079 c 2.65587,0 4.8075,2.17613 4.8075,4.86721 -10e-6,2.70066 -2.15163,4.89708 -4.8075,4.89708 -2.64638,0 -4.80749,-2.19642 -4.80749,-4.89708 0,-2.69108 2.16111,-4.86721 4.80749,-4.86721 z"
           id="path1950" /></g></g></g></svg>
